<svg xmlns="http://www.w3.org/2000/svg" xmlns:svg="http://www.w3.org/2000/svg" id="svg47" width="768" height="768" fill="none" version="1.1" viewBox="0 0 768 768"><path id="circle33" style="fill:#ececec" d="m 306.7315,89 a 121,121 0 0 0 -121,121 121,121 0 0 0 120.8418,120.98438 L 411.40142,149.41797 A 121,121 0 0 0 306.7315,89 Z"/><path id="path37" fill="#0066B0" fill-rule="evenodd" d="M429.5 543L550 335L309 335L429.5 543Z" clip-rule="evenodd" style="fill:#fff"/><path id="path37-7" fill="#0066b0" fill-rule="evenodd" d="M 429.5,124 550.29135,332.50291 H 308.70865 Z" clip-rule="evenodd" style="fill:#fff;fill-opacity:1;stroke-width:1.00242"/><path id="path37-7-5" style="fill:#fff;fill-opacity:1;stroke-width:.489674" d="m 306.64855,336.55438 -44.67773,77.12109 14.32812,24.73242 h 89.35547 z"/><path id="path37-7-9" fill="#0066b0" fill-rule="evenodd" d="M 552,337 672.79135,545.50291 H 431.20865 Z" clip-rule="evenodd" style="fill:#fff;fill-opacity:1;stroke-width:1.00242"/><path id="path41" fill="#0093ff" fill-rule="evenodd" d="m 321.32659,515.63497 43.72296,-75.16014 h -87.44593 z" clip-rule="evenodd" style="stroke-width:.722694;fill:#fff"/><path id="path43" fill="#0076cc" fill-rule="evenodd" d="m 214.90584,337 120.5,208 H 94.405844 Z" clip-rule="evenodd" style="fill:#fff"/><path id="path22856" style="fill:#fff;fill-opacity:1" d="M 367.29708,441 322.58028,517.86914 338.29708,545 h 89.5 z"/></svg>